{"title":"Phobia 2 / 5 Prang / Ha Phraeng (2009)","uid":8519124,"size":790623034,"categoryP":"video","categoryS":"movies","magnet":"?xt=urn:btih:b282bc2b72bff311ae67cdcea93cee50bddc9229&amp;dn=Phobia+2+%2F+5+Prang+%2F+Ha+Phraeng+%282009%29&amp;tr=udp%3A%2F%2Ftracker.openbittorrent.com%3A80&amp;tr=udp%3A%2F%2Fopen.demonii.com%3A1337&amp;tr=udp%3A%2F%2Ftracker.coppersurfer.tk%3A6969&amp;tr=udp%3A%2F%2Fexodus.desync.com%3A6969","seeders":2,"leechers":1,"uploader":"ghoulf","files":2,"time":1369857037,"description":"Format                                   : AVI\nFormat/Info                              : Audio Video Interleave\nFile size                                : 754 MiB\nDuration                                 : 2h 0mn\nOverall bit rate                         : 875 Kbps\n\nVideo\nID                                       : 0\nFormat                                   : MPEG-4 Visual\nFormat profile                           : Advanced Simple@L5\nFormat settings, BVOP                    : No\nFormat settings, QPel                    : No\nFormat settings, GMC                     : No warppoints\nFormat settings, Matrix                  : Default (H.263)\nCodec ID                                 : XVID\nCodec ID/Hint                            : XviD\nDuration                                 : 2h 0mn\nBit rate                                 : 772 Kbps\nWidth                                    : 1 024 pixels\nHeight                                   : 576 pixels\nDisplay aspect ratio                     : 16:9\nFrame rate                               : 25.000 fps\nColor space                              : YUV\nChroma subsampling                       : 4:2:0\nBit depth                                : 8 bits\nScan type                                : Progressive\nCompression mode                         : Lossy\nBits/(Pixel*Frame)                       : 0.052\nStream size                              : 665 MiB (88%)\nWriting library                          : XviD 1.1.2 (UTC 2006-11-01)\n\nAudio\nID                                       : 1\nFormat                                   : MPEG Audio\nFormat version                           : Version 1\nFormat profile                           : Layer 3\nCodec ID                                 : 55\nCodec ID/Hint                            : MP3\nDuration                                 : 2h 0mn\nBit rate mode                            : Constant\nBit rate                                 : 96.0 Kbps\nChannel(s)                               : 2 channels\nSampling rate                            : 44.1 KHz\nCompression mode                         : Lossy\nStream size                              : 82.7 MiB (11%)\nAlignment                                : Split accross interleaves\nInterleave, duration                     : 80 ms (2.00 video frames)\n","torrent":{"xt":"urn:btih:b282bc2b72bff311ae67cdcea93cee50bddc9229","amp;dn":"Phobia+2+%2F+5+Prang+%2F+Ha+Phraeng+%282009%29","amp;tr":["udp%3A%2F%2Ftracker.openbittorrent.com%3A80","udp%3A%2F%2Fopen.demonii.com%3A1337","udp%3A%2F%2Ftracker.coppersurfer.tk%3A6969","udp%3A%2F%2Fexodus.desync.com%3A6969"],"infoHash":"b282bc2b72bff311ae67cdcea93cee50bddc9229","infoHashBuffer":{"type":"Buffer","data":[178,130,188,43,114,191,243,17,174,103,205,206,169,60,238,80,189,220,146,41]},"announce":[],"urlList":[]}}